<svg version="1.1" xmlns="http://www.w3.org/2000/svg" style="display: block;" viewBox="0 0 2048 2048" width="512" height="512" preserveAspectRatio="none">
<defs>
	<linearGradient id="Gradient1" gradientUnits="userSpaceOnUse" x1="1084.47" y1="333.536" x2="1049.32" y2="350.028">
		<stop class="stop0" offset="0" stop-opacity="1" stop-color="rgb(52,59,58)"/>
		<stop class="stop1" offset="1" stop-opacity="1" stop-color="rgb(82,83,80)"/>
	</linearGradient>
	<linearGradient id="Gradient2" gradientUnits="userSpaceOnUse" x1="1308.78" y1="1012.25" x2="1322.22" y2="1001.75">
		<stop class="stop0" offset="0" stop-opacity="1" stop-color="rgb(67,72,77)"/>
		<stop class="stop1" offset="1" stop-opacity="1" stop-color="rgb(89,92,87)"/>
	</linearGradient>
</defs>
<path transform="translate(0,0)" fill="rgb(0,0,0)" d="M 0 0 L 2048 0 L 2048 2048 L 0 2048 L 0 0 z"/>
<path transform="translate(0,0)" fill="rgb(2,59,40)" d="M 1011.09 480.552 C 1014.33 478.798 1021.76 474.369 1025.62 476.45 C 1036.01 482.048 1042.65 494.181 1049.23 503.711 C 1062.87 523.456 1078.16 544.809 1097.88 558.888 C 1100.54 559.57 1110.09 566.35 1112.15 568.214 C 1130.45 580.297 1148.06 592.666 1167.64 602.311 C 1206.19 621.301 1249.6 633.083 1292.29 637.517 C 1303.22 638.653 1319.94 641.566 1330.68 640.878 C 1357.57 639.154 1383.71 635.68 1410.11 630.388 C 1427.49 626.905 1436.77 624.157 1452.3 619.726 C 1464.84 616.146 1508.02 596.265 1514.16 596.84 C 1515.83 597.757 1522.34 599.975 1522.35 599.983 C 1532.54 610.089 1530.32 639.014 1532.01 652.739 C 1534.38 671.959 1535.12 690.825 1535.31 710.112 C 1535.96 732.551 1534.71 754.377 1532.23 776.666 C 1530.96 788.06 1532.02 801.096 1530.52 812.37 C 1523.83 862.807 1517.52 921.549 1501.18 969.732 C 1496.72 983.444 1492.86 997.124 1488.66 1010.9 C 1485.78 1020.32 1477.4 1031.09 1474.44 1040.12 C 1468.55 1058.1 1460.15 1073.69 1452.63 1090.68 C 1444.33 1109.46 1438.71 1122.66 1426.8 1139.81 C 1413.37 1164.44 1399.13 1191.01 1382.99 1214.01 C 1367.56 1236.01 1349.11 1257.39 1333.32 1279.38 C 1322.08 1295.04 1299.43 1308.96 1290.67 1326.87 C 1287.59 1329.79 1284.37 1332.99 1281.19 1335.76 C 1272.51 1341.78 1261.1 1352.81 1256.06 1356.08 C 1252.4 1359.54 1247.87 1363.53 1244.69 1367.33 C 1240.78 1374.04 1232.45 1382.27 1225.51 1385.77 C 1223.52 1387.97 1223.77 1388.05 1221.35 1389.6 C 1219.03 1392.87 1155.01 1446.62 1150.33 1448.36 C 1136.35 1455.49 1122.76 1469.76 1109.57 1478.95 C 1099.05 1486.28 1080.94 1493.85 1071.93 1501.78 C 1069.22 1504.31 1067.57 1506.17 1064.25 1507.91 C 1061.08 1508.93 1058.75 1509.85 1055.66 1511.13 C 1044.48 1517.09 1030.01 1526.61 1017.27 1527.52 C 1012.88 1527.84 1008.54 1521.99 1003.2 1519.36 C 988.377 1512.08 975.678 1503.23 961.98 1494.24 C 952.95 1487.98 940.9 1482.68 932.34 1475.96 C 906.317 1455.54 875.012 1436.55 851.409 1413.66 C 847.598 1410.8 818.242 1386.11 816.642 1384.07 C 815.284 1381.91 813.05 1378.95 811.518 1376.8 C 797.428 1361.29 776.828 1348.42 762.673 1333.1 C 740.834 1309.14 716.358 1288.63 697.979 1261.7 C 678.994 1233.88 653.7 1207.76 638.66 1177.18 C 636.321 1173.51 633.608 1167.67 631.66 1163.64 C 626.174 1152.29 616.559 1142.86 612.061 1131.21 C 610.342 1130.07 602.076 1112.36 600.556 1108.98 C 599.371 1104.09 590.529 1087.07 588.008 1081.34 C 580.944 1065.32 572.204 1047.87 565.926 1031.61 C 543.575 973.7 528.114 915.866 519.944 854.254 C 517.996 835.354 513.875 815.213 513.219 796.273 C 512.518 776.03 511.412 756.414 509.02 736.231 C 508.696 733.495 510.805 731.502 512.379 729.386 C 512.66 724.644 513.45 718.844 512.167 714.456 C 506.052 706.05 510.799 698.158 511.65 687.111 C 512.808 672.082 512.242 662.799 512.584 646.504 C 512.746 638.75 514.813 611.85 518.324 603.591 C 536.327 593.896 563.131 611.583 580.84 616.56 C 624.328 631.352 668.27 638.345 713.861 641.13 C 727.822 641.347 739.701 638.651 753.727 637.577 C 811.931 633.118 867.28 611.271 916.113 580.159 C 920.869 577.128 926.168 572.362 930.814 568.959 C 931.114 568.512 955.192 551.366 959.875 546.779 C 971.136 534.996 981.98 525.384 991.465 512.022 C 997.83 503.056 1004.75 488.513 1011.09 480.552 z"/>
<path transform="translate(0,0)" fill="rgb(154,163,161)" d="M 930.814 568.959 L 931.351 572.286 C 915.175 586.362 904.728 591.422 886.474 601.384 C 841.352 626.01 795.732 636.187 745.013 640.722 C 697.113 645.005 650.113 638.824 603.555 626.692 C 593.049 623.954 582.688 620.685 572.512 616.899 C 553.856 609.956 542.203 603.242 521.795 604.417 C 520.479 612.03 517.151 629.158 516.875 636.384 C 516.075 657.392 515.972 678.253 514.951 699.356 C 513.77 705.678 515.185 709.632 512.167 714.456 C 506.052 706.05 510.799 698.158 511.65 687.111 C 512.808 672.082 512.242 662.799 512.584 646.504 C 512.746 638.75 514.813 611.85 518.324 603.591 C 536.327 593.896 563.131 611.583 580.84 616.56 C 624.328 631.352 668.27 638.345 713.861 641.13 C 727.822 641.347 739.701 638.651 753.727 637.577 C 811.931 633.118 867.28 611.271 916.113 580.159 C 920.869 577.128 926.168 572.362 930.814 568.959 z"/>
<path transform="translate(0,0)" fill="rgb(123,133,129)" d="M 1112.15 568.214 C 1130.45 580.297 1148.06 592.666 1167.64 602.311 C 1206.19 621.301 1249.6 633.083 1292.29 637.517 C 1303.22 638.653 1319.94 641.566 1330.68 640.878 C 1357.57 639.154 1383.71 635.68 1410.11 630.388 C 1427.49 626.905 1436.77 624.157 1452.3 619.726 C 1464.84 616.146 1508.02 596.265 1514.16 596.84 C 1509.36 604.606 1452.51 623.284 1441.22 626.191 C 1405.27 634.135 1363.7 644.024 1326.53 642.742 C 1267.64 640.71 1203.38 627.219 1151.93 597.698 C 1143.38 592.79 1114.18 575.711 1112.15 568.214 z"/>
<path transform="translate(0,0)" fill="rgb(184,186,182)" d="M 1498.44 968.836 C 1524.41 878.181 1533.74 776.736 1531.43 682.531 C 1530.98 663.994 1528.02 644.325 1526.1 625.82 C 1525.36 618.761 1521.81 606.042 1522.35 599.983 C 1532.54 610.089 1530.32 639.014 1532.01 652.739 C 1534.38 671.959 1535.12 690.825 1535.31 710.112 C 1535.96 732.551 1534.71 754.377 1532.23 776.666 C 1530.96 788.06 1532.02 801.096 1530.52 812.37 C 1523.83 862.807 1517.52 921.549 1501.18 969.732 L 1498.44 968.836 z"/>
<path transform="translate(0,0)" fill="rgb(184,186,182)" d="M 512.379 729.386 C 515.646 734.656 513.353 745.775 514.884 753.038 C 519.427 875.655 542.24 979.073 593.817 1090.28 C 596.12 1095.24 600.83 1104.07 600.556 1108.98 C 599.371 1104.09 590.529 1087.07 588.008 1081.34 C 580.944 1065.32 572.204 1047.87 565.926 1031.61 C 543.575 973.7 528.114 915.866 519.944 854.254 C 517.996 835.354 513.875 815.213 513.219 796.273 C 512.518 776.03 511.412 756.414 509.02 736.231 C 508.696 733.495 510.805 731.502 512.379 729.386 z"/>
<path transform="translate(0,0)" fill="rgb(154,163,161)" d="M 1425.39 1138.64 L 1426.8 1139.81 C 1413.37 1164.44 1399.13 1191.01 1382.99 1214.01 C 1367.56 1236.01 1349.11 1257.39 1333.32 1279.38 C 1322.08 1295.04 1299.43 1308.96 1290.67 1326.87 L 1290.94 1322.16 C 1294.47 1320.77 1310.72 1293.43 1315.05 1289.87 C 1334.86 1275.52 1345.83 1254.02 1361.05 1236.72 C 1387.18 1207.01 1403.21 1170.95 1424.7 1139.62 L 1425.39 1138.64 z"/>
<path transform="translate(0,0)" fill="rgb(145,149,145)" d="M 638.66 1177.18 L 640.437 1174.85 C 653.444 1196.92 666.569 1216.67 683.475 1236.23 C 692.481 1246.65 700.533 1262.99 710.142 1272.94 C 737.342 1301.08 762.736 1332.27 793.221 1356.93 C 798.666 1361.34 810.72 1370.24 811.518 1376.8 C 797.428 1361.29 776.828 1348.42 762.673 1333.1 C 740.834 1309.14 716.358 1288.63 697.979 1261.7 C 678.994 1233.88 653.7 1207.76 638.66 1177.18 z"/>
<path transform="translate(0,0)" fill="rgb(145,149,145)" d="M 1011.09 480.552 C 1014.33 478.798 1021.76 474.369 1025.62 476.45 C 1036.01 482.048 1042.65 494.181 1049.23 503.711 C 1062.87 523.456 1078.16 544.809 1097.88 558.888 C 1096.34 559.971 1097.25 559.467 1095.05 560.235 C 1069.98 543.851 1043.16 499.947 1024.02 477.751 C 1014.63 483.494 1009.89 490.099 1004.18 499.2 C 992.279 518.151 978.906 533.468 962.334 548.57 L 959.875 546.779 C 971.136 534.996 981.98 525.384 991.465 512.022 C 997.83 503.056 1004.75 488.513 1011.09 480.552 z"/>
<path transform="translate(0,0)" fill="rgb(99,113,106)" d="M 1425.39 1138.64 C 1429.13 1132.62 1427.78 1121.45 1433.55 1117.14 C 1452.99 1102.65 1484.86 996.435 1498.44 968.836 L 1501.18 969.732 C 1496.72 983.444 1492.86 997.124 1488.66 1010.9 C 1485.78 1020.32 1477.4 1031.09 1474.44 1040.12 C 1468.55 1058.1 1460.15 1073.69 1452.63 1090.68 C 1444.33 1109.46 1438.71 1122.66 1426.8 1139.81 L 1425.39 1138.64 z"/>
<path transform="translate(0,0)" fill="rgb(145,149,145)" d="M 851.409 1413.66 L 853.18 1411.23 C 898.272 1448.78 945.369 1483.69 996.378 1512.87 C 1002.84 1516.57 1014.3 1524.21 1021.52 1523.84 C 1030.58 1523.36 1046.86 1508.78 1054.2 1509.73 L 1055.66 1511.13 C 1044.48 1517.09 1030.01 1526.61 1017.27 1527.52 C 1012.88 1527.84 1008.54 1521.99 1003.2 1519.36 C 988.377 1512.08 975.678 1503.23 961.98 1494.24 C 952.95 1487.98 940.9 1482.68 932.34 1475.96 C 906.317 1455.54 875.012 1436.55 851.409 1413.66 z"/>
<path transform="translate(0,0)" fill="rgb(123,133,129)" d="M 1070.11 1499.95 C 1079.94 1488.76 1090.24 1488.54 1101.86 1480.44 C 1117.76 1469.35 1131.26 1454.91 1148.63 1446.07 L 1150.33 1448.36 C 1136.35 1455.49 1122.76 1469.76 1109.57 1478.95 C 1099.05 1486.28 1080.94 1493.85 1071.93 1501.78 L 1070.11 1499.95 z"/>
<path transform="translate(0,0)" fill="rgb(184,186,182)" d="M 1148.63 1446.07 C 1160.7 1437.5 1212.85 1391.29 1221.35 1389.6 C 1219.03 1392.87 1155.01 1446.62 1150.33 1448.36 L 1148.63 1446.07 z"/>
<path transform="translate(0,0)" fill="rgb(77,87,82)" d="M 612.061 1131.21 C 617.266 1132.63 628.28 1152.19 631.396 1157.63 C 634.601 1163.24 637.694 1169 640.437 1174.85 L 638.66 1177.18 C 636.321 1173.51 633.608 1167.67 631.66 1163.64 C 626.174 1152.29 616.559 1142.86 612.061 1131.21 z"/>
<path transform="translate(0,0)" fill="rgb(123,133,129)" d="M 816.642 1384.07 C 817.526 1384.01 818.41 1383.95 819.294 1383.88 C 828.18 1390.23 843.023 1402.44 850.579 1408.9 C 851.464 1409.66 852.331 1410.44 853.18 1411.23 L 851.409 1413.66 C 847.598 1410.8 818.242 1386.11 816.642 1384.07 z"/>
<path transform="translate(0,0)" fill="rgb(99,113,106)" d="M 930.814 568.959 C 931.114 568.512 955.192 551.366 959.875 546.779 L 962.334 548.57 C 951.822 558.251 942.656 563.832 931.351 572.286 L 930.814 568.959 z"/>
<path transform="translate(0,0)" fill="rgb(77,87,82)" d="M 1256.06 1356.08 C 1255.66 1354.36 1255.74 1355.35 1256.13 1353.11 C 1264.42 1345.19 1268.18 1339.33 1278.25 1333.65 L 1281.19 1335.76 C 1272.51 1341.78 1261.1 1352.81 1256.06 1356.08 z"/>
<path transform="translate(0,0)" fill="rgb(77,87,82)" d="M 514.951 699.356 C 515.284 704.194 515.273 748.932 514.884 753.038 C 513.353 745.775 515.646 734.656 512.379 729.386 C 512.66 724.644 513.45 718.844 512.167 714.456 C 515.185 709.632 513.77 705.678 514.951 699.356 z"/>
<path transform="translate(0,0)" fill="rgb(221,215,217)" d="M 1225.51 1385.77 C 1227.92 1380 1238.65 1369.21 1244.69 1367.33 C 1240.78 1374.04 1232.45 1382.27 1225.51 1385.77 z"/>
<path transform="translate(0,0)" fill="rgb(184,186,182)" d="M 1290.94 1322.16 L 1290.67 1326.87 C 1287.59 1329.79 1284.37 1332.99 1281.19 1335.76 L 1278.25 1333.65 C 1282.42 1329.75 1286.65 1325.92 1290.94 1322.16 z"/>
<path transform="translate(0,0)" fill="rgb(184,186,182)" d="M 1064.25 1507.91 L 1063.69 1506 C 1064.94 1502.82 1067.18 1501.89 1070.11 1499.95 L 1071.93 1501.78 C 1069.22 1504.31 1067.57 1506.17 1064.25 1507.91 z"/>
<path transform="translate(0,0)" fill="rgb(0,0,0)" d="M 1000.91 711.776 C 1005.27 705.731 1015 691.004 1022.03 689.79 C 1023.71 692.185 1031.96 704.439 1033.47 705.417 C 1038.05 705.706 1044.43 713.313 1047.77 716.848 C 1044.65 721.502 1041.86 725.369 1039.59 730.542 C 1040.8 742.703 1034.98 766.251 1043.07 773.787 C 1065.09 762.34 1080.64 755.216 1105.3 751.466 C 1116.33 749.404 1119.9 748.474 1130.94 750.876 C 1170.9 753.549 1188.4 770.463 1224.96 782.721 C 1234.15 785.802 1248.01 776.864 1258.56 780.861 C 1270.76 782.039 1280.41 764.274 1284.52 754.884 L 1284.28 753.269 C 1287.37 752.016 1288.7 753.407 1291.82 754.465 C 1316.19 762.753 1289.26 783.507 1278.93 790.321 C 1274.65 794.068 1262.55 800.781 1257.34 803.363 L 1256.16 803.106 C 1255.76 810.413 1262.81 834.545 1266.57 840.026 C 1271.1 844.451 1283.61 877.68 1287.82 886.006 C 1302.47 914.985 1314.91 945.733 1327.87 975.53 C 1332.44 989.785 1352.41 1023.24 1352.58 1037.46 C 1352.88 1061.07 1337.74 1097.38 1319.95 1112.92 C 1275.44 1151.82 1232.75 1157.98 1179.26 1135.55 C 1174.24 1134.34 1166.33 1130.73 1163.82 1126 C 1152.67 1119.38 1127.25 1100.24 1125.41 1086.76 L 1127.37 1087.59 L 1128.41 1087.16 L 1127.89 1084.73 C 1127.61 1082.69 1123.03 1065.98 1122.18 1063.01 C 1119.4 1053.29 1118.34 1041.66 1116.15 1032.81 C 1111.31 1022.81 1140.42 969.729 1143.71 952.168 C 1148.77 939.779 1158.54 919.264 1168.31 909.635 C 1176.64 892.911 1182.26 872.449 1190.65 855.484 C 1193.35 850.045 1195.97 844.109 1197.58 838.255 C 1201.2 823.66 1219.08 810.82 1207.79 799.098 C 1205.26 797.776 1201.53 796.474 1199.62 795.322 C 1193.59 791.679 1188.01 787.145 1181.54 784.119 C 1152.29 770.382 1118.94 768.191 1088.14 777.983 C 1067.77 784.338 1037.5 798.327 1036.37 823.002 C 1035.61 839.632 1035.96 856.814 1036.05 873.515 L 1036.3 958.593 L 1036.15 1058.82 C 1036.1 1094.8 1033.65 1122.29 1045.08 1157 C 1054.3 1184.99 1067.64 1199.49 1090.42 1218.5 C 1093.96 1221.57 1099.92 1224.45 1098.91 1227.86 C 1109.73 1233.21 1126.14 1238.85 1137.86 1242.55 C 1147.67 1237.65 1148.26 1250.58 1148.22 1256.48 C 1121.92 1257.34 1093.05 1256.6 1066.5 1256.6 L 896.172 1256.91 C 895.641 1251.67 894.997 1248.58 896.042 1243.39 L 897.366 1242.26 L 898.733 1243.02 L 900.72 1242.61 C 900.852 1242.47 900.989 1242.32 901.117 1242.17 C 903.932 1238.84 935.507 1228.89 941.825 1226.58 C 953.544 1220.64 969.234 1205.47 980.479 1196.02 C 979.605 1181.13 1006.25 1163.87 1007.02 1132.16 C 1008.24 1082.31 1007.42 1032.88 1007.5 983.066 L 1007.66 870.626 C 1007.71 853.57 1008.03 836.516 1008.04 819.464 C 1008.05 813.422 1004.67 812.771 1005.48 806.785 C 1004.3 801.409 994.502 793.769 989.731 791.564 L 987.415 791.533 C 980.21 786.934 971.69 783.301 963.902 778.376 L 963.985 776.484 C 959.596 774.731 956.745 774.404 952.143 773.581 C 951.805 773.759 950.233 774.668 949.854 774.538 C 942.588 772.041 897.128 773.077 894.899 771.886 C 889.988 772.409 874.506 776.855 870.614 779.708 L 871.054 780.968 C 867.228 783.149 857.722 789.005 853.82 790.462 C 821.39 802.572 845.081 830.244 852.506 849.566 C 858.498 865.158 889.268 929.443 889.6 941.04 L 889.657 941.814 C 896.424 949.588 916.957 988.352 916.646 998.28 C 924.665 1019.01 931.72 1033.39 926.176 1056.36 C 924.839 1061.89 921.476 1071.25 920.616 1076.29 C 920.611 1086.93 910.158 1102.91 902.588 1110.41 C 852.624 1159.86 771.508 1163.71 722.045 1109.22 C 698.352 1085.42 679.878 1034.52 700.442 1003.53 C 701.474 1004.65 701.109 1004.19 701.985 1005.38 L 702.578 1006.21 C 711.729 997.85 738.342 917.083 747.533 903.877 C 754.784 893.459 779.409 832.397 783.698 831.166 C 796.617 795.189 796.009 804.021 765.88 789.313 C 758.009 788.226 755.175 784.617 749.752 779.048 C 747.041 776.057 741.753 770.626 740.753 766.916 C 739.135 760.913 749.206 753.37 754.561 752.912 C 758.132 755.103 772.359 768.691 773.44 772.551 L 774.236 773.073 C 777.985 773.545 779.409 775.117 782.747 776.135 C 795.978 780.171 818.473 782.564 831.58 777.162 C 851.969 768.758 887.535 745.046 910.387 753.09 L 920.595 752.798 C 926.667 748.669 945.509 752.878 952.019 754.296 C 989.571 762.478 1014.15 798.247 1003.13 730.867 C 1002.43 726.584 994.65 722.058 994.232 716.876 C 995.912 713.529 994.784 715.019 998.22 712.631 L 1000.91 711.776 z"/>
<path transform="translate(0,0)" fill="rgb(145,149,145)" d="M 1098.91 1227.86 C 1081.62 1219.3 1062.75 1197.78 1053.02 1181.22 C 1030.65 1143.16 1032.7 1102.4 1032.66 1060.36 L 1032.64 954.645 L 1032.67 868.266 C 1032.7 829.992 1025.49 803.31 1065.71 783.899 C 1104.3 765.273 1141.18 764.455 1180.63 781.606 C 1189.53 785.479 1200.49 793.877 1208.91 796.044 L 1207.79 799.098 C 1205.26 797.776 1201.53 796.474 1199.62 795.322 C 1193.59 791.679 1188.01 787.145 1181.54 784.119 C 1152.29 770.382 1118.94 768.191 1088.14 777.983 C 1067.77 784.338 1037.5 798.327 1036.37 823.002 C 1035.61 839.632 1035.96 856.814 1036.05 873.515 L 1036.3 958.593 L 1036.15 1058.82 C 1036.1 1094.8 1033.65 1122.29 1045.08 1157 C 1054.3 1184.99 1067.64 1199.49 1090.42 1218.5 C 1093.96 1221.57 1099.92 1224.45 1098.91 1227.86 z"/>
<path transform="translate(0,0)" fill="rgb(184,186,182)" d="M 1266.57 840.026 C 1271.1 844.451 1283.61 877.68 1287.82 886.006 C 1302.47 914.985 1314.91 945.733 1327.87 975.53 C 1332.44 989.785 1352.41 1023.24 1352.58 1037.46 C 1352.88 1061.07 1337.74 1097.38 1319.95 1112.92 C 1275.44 1151.82 1232.75 1157.98 1179.26 1135.55 L 1182.73 1133.87 C 1205.6 1142.68 1227.35 1148.81 1253.24 1143.82 C 1304.94 1133.84 1348.89 1091.76 1348.71 1036.96 C 1348.67 1023.35 1335.56 1000.25 1329.98 987.439 C 1319.57 963.54 1310.04 939.218 1296.78 916.698 C 1292.64 909.599 1287.46 894.215 1284.3 886.089 C 1279.01 872.461 1268.74 854.027 1266.57 840.026 z"/>
<path transform="translate(0,0)" fill="rgb(154,163,161)" d="M 980.479 1196.02 C 979.605 1181.13 1006.25 1163.87 1007.02 1132.16 C 1008.24 1082.31 1007.42 1032.88 1007.5 983.066 L 1007.66 870.626 C 1007.71 853.57 1008.03 836.516 1008.04 819.464 C 1008.05 813.422 1004.67 812.771 1005.48 806.785 L 1011.19 813.73 L 1011.2 1026.3 C 1011.21 1058.65 1013.98 1111.27 1008.3 1140.94 C 1004.38 1161.45 995.028 1179.52 983.365 1196.67 L 980.479 1196.02 z"/>
<path transform="translate(0,0)" fill="rgb(123,133,129)" d="M 722.045 1109.22 C 698.352 1085.42 679.878 1034.52 700.442 1003.53 C 701.474 1004.65 701.109 1004.19 701.985 1005.38 L 702.578 1006.21 C 711.729 997.85 738.342 917.083 747.533 903.877 C 754.784 893.459 779.409 832.397 783.698 831.166 C 778.749 847.92 770.642 863.452 764.117 879.535 C 747.873 919.573 726.621 956.626 711.593 997.28 C 707.49 1008.38 698.236 1019.68 696.997 1032.57 C 695.271 1050.54 702.628 1073.24 711.132 1088.68 C 714.901 1095.55 719.548 1101.9 724.955 1107.57 L 722.045 1109.22 z"/>
<path transform="translate(0,0)" fill="rgb(184,186,182)" d="M 1137.86 1242.55 C 1147.67 1237.65 1148.26 1250.58 1148.22 1256.48 C 1121.92 1257.34 1093.05 1256.6 1066.5 1256.6 L 896.172 1256.91 C 895.641 1251.67 894.997 1248.58 896.042 1243.39 L 897.366 1242.26 L 898.733 1243.02 C 898.767 1245.91 898.785 1247.61 899.169 1250.52 L 901.047 1251.9 C 911.608 1253.37 933.523 1252.89 944.854 1252.88 L 1019.72 1252.83 L 1096.78 1252.89 C 1108.44 1252.9 1133.11 1253.56 1143.52 1251.45 C 1145.45 1249.33 1145.09 1250.55 1145.06 1247.86 C 1142.71 1244.62 1141.59 1244.42 1137.86 1242.55 z"/>
<path transform="translate(0,0)" fill="rgb(184,186,182)" d="M 920.616 1076.29 C 920.611 1086.93 910.158 1102.91 902.588 1110.41 C 852.624 1159.86 771.508 1163.71 722.045 1109.22 L 724.955 1107.57 C 768.924 1152.76 830.18 1157.28 881.358 1122.21 C 903.05 1107.34 908.993 1098.85 920.616 1076.29 z"/>
<path transform="translate(0,0)" fill="rgb(145,149,145)" d="M 870.614 779.708 L 871.054 780.968 C 867.228 783.149 857.722 789.005 853.82 790.462 C 821.39 802.572 845.081 830.244 852.506 849.566 C 858.498 865.158 889.268 929.443 889.6 941.04 C 874.207 917.255 867.874 888.27 856.441 861.996 C 850.639 848.66 827.604 818.376 833.322 802.095 C 836.478 793.106 861.183 783.409 870.614 779.708 z"/>
<path transform="translate(0,0)" fill="rgb(123,133,129)" d="M 998.22 712.631 C 1012.26 742.476 1006.28 744.667 1008.13 776.233 C 1002.55 776.143 996.737 776.181 991.2 775.658 C 973.637 762.921 960.569 757.22 938.957 755.868 C 933.151 755.504 925.832 755.06 920.595 752.798 C 926.667 748.669 945.509 752.878 952.019 754.296 C 989.571 762.478 1014.15 798.247 1003.13 730.867 C 1002.43 726.584 994.65 722.058 994.232 716.876 C 995.912 713.529 994.784 715.019 998.22 712.631 z"/>
<path transform="translate(0,0)" fill="rgb(184,186,182)" d="M 774.236 773.073 C 777.985 773.545 779.409 775.117 782.747 776.135 C 795.978 780.171 818.473 782.564 831.58 777.162 C 851.969 768.758 887.535 745.046 910.387 753.09 C 904.853 756.216 888.839 755.77 880.515 758.742 C 845.958 771.08 810.247 801.701 774.236 773.073 z"/>
<path transform="translate(0,0)" fill="rgb(145,149,145)" d="M 1197.58 838.255 C 1200.73 834.835 1201.56 833.594 1205.47 831.272 L 1207.78 831.941 C 1202.97 843.125 1194.78 853.578 1190.73 863.402 C 1180.78 887.544 1171.18 910.873 1160.4 934.688 C 1157.85 928.867 1165.84 915.673 1168.31 909.635 C 1176.64 892.911 1182.26 872.449 1190.65 855.484 C 1193.35 850.045 1195.97 844.109 1197.58 838.255 z"/>
<path transform="translate(0,0)" fill="rgb(145,149,145)" d="M 1130.94 750.876 C 1170.9 753.549 1188.4 770.463 1224.96 782.721 C 1234.15 785.802 1248.01 776.864 1258.56 780.861 C 1256.63 781.485 1240.5 786.277 1239.09 786.472 C 1215.74 789.7 1184.77 764.95 1161.36 758.505 C 1152.08 755.949 1135.39 756.237 1130.71 753.403 L 1130.94 750.876 z"/>
<path transform="translate(0,0)" fill="rgb(47,67,61)" d="M 1143.71 952.168 C 1148.77 939.779 1158.54 919.264 1168.31 909.635 C 1165.84 915.673 1157.85 928.867 1160.4 934.688 C 1157.29 942.875 1152.03 952.608 1148.29 960.811 L 1145.73 960.894 C 1143.3 957.613 1144.09 957.059 1143.71 952.168 z"/>
<path transform="translate(0,0)" fill="rgb(77,87,82)" d="M 1143.71 952.168 C 1144.09 957.059 1143.3 957.613 1145.73 960.894 L 1148.29 960.811 C 1140.81 975.178 1132.92 988.449 1126.26 1003.3 C 1122.61 1011.42 1119.61 1025.95 1116.15 1032.81 C 1111.31 1022.81 1140.42 969.729 1143.71 952.168 z"/>
<path transform="translate(0,0)" fill="rgb(184,186,182)" d="M 1105.3 751.466 C 1107.81 752.644 1107.25 752.197 1109.34 753.929 L 1107.53 754.336 C 1097.87 756.432 1091.05 756.034 1080.87 759.948 C 1068.03 764.883 1055.11 774.766 1041.75 776.502 L 1043.07 773.787 C 1065.09 762.34 1080.64 755.216 1105.3 751.466 z"/>
<path transform="translate(0,0)" fill="rgb(117,118,115)" d="M 1208.91 796.044 C 1225.78 806.803 1210.3 817.246 1207.78 831.941 L 1205.47 831.272 C 1201.56 833.594 1200.73 834.835 1197.58 838.255 C 1201.2 823.66 1219.08 810.82 1207.79 799.098 L 1208.91 796.044 z"/>
<path transform="translate(0,0)" fill="rgb(184,186,182)" d="M 1284.52 754.884 L 1284.28 753.269 C 1287.37 752.016 1288.7 753.407 1291.82 754.465 C 1316.19 762.753 1289.26 783.507 1278.93 790.321 L 1278.11 787.959 C 1284.79 781.697 1295.63 773.088 1297.36 764.288 C 1296.5 760.73 1297.34 762.23 1294.71 759.643 C 1289.67 758.66 1288.61 757.992 1284.52 754.884 z"/>
<path transform="translate(0,0)" fill="rgb(117,118,115)" d="M 1127.89 1084.73 C 1138.5 1105.69 1147.36 1108.71 1164.32 1123.05 L 1163.82 1126 C 1152.67 1119.38 1127.25 1100.24 1125.41 1086.76 L 1127.37 1087.59 L 1128.41 1087.16 L 1127.89 1084.73 z"/>
<path transform="translate(0,0)" fill="rgb(184,186,182)" d="M 749.752 779.048 C 747.041 776.057 741.753 770.626 740.753 766.916 C 739.135 760.913 749.206 753.37 754.561 752.912 C 758.132 755.103 772.359 768.691 773.44 772.551 C 764.919 767.726 761.388 760.966 753.859 754.185 C 744.054 765.981 744.874 764.892 752.725 777.849 L 749.752 779.048 z"/>
<path transform="translate(0,0)" fill="rgb(47,67,61)" d="M 889.657 941.814 C 896.424 949.588 916.957 988.352 916.646 998.28 C 906.097 977.499 897.179 965.217 889.657 941.814 z"/>
<path transform="translate(0,0)" fill="rgb(77,87,82)" d="M 894.899 771.886 C 910.471 765.423 936.198 768.982 952.143 773.581 C 951.805 773.759 950.233 774.668 949.854 774.538 C 942.588 772.041 897.128 773.077 894.899 771.886 z"/>
<path transform="translate(0,0)" fill="rgb(154,163,161)" d="M 980.479 1196.02 L 983.365 1196.67 C 980.482 1202.3 953.114 1223.82 946.257 1227.38 L 941.825 1226.58 C 953.544 1220.64 969.234 1205.47 980.479 1196.02 z"/>
<path transform="translate(0,0)" fill="rgb(99,113,106)" d="M 1035.74 726.282 L 1037.68 730.214 L 1039.59 730.542 C 1040.8 742.703 1034.98 766.251 1043.07 773.787 L 1041.75 776.502 C 1038.35 776.488 1039.75 777.027 1037.25 775.294 C 1035.19 767.246 1037.53 738.331 1035.74 726.282 z"/>
<path transform="translate(0,0)" fill="rgb(47,67,61)" d="M 900.72 1242.61 C 900.852 1242.47 900.989 1242.32 901.117 1242.17 C 903.932 1238.84 935.507 1228.89 941.825 1226.58 L 946.257 1227.38 C 936.915 1231.26 908.285 1244.69 900.72 1242.61 z"/>
<path transform="translate(0,0)" fill="rgb(184,186,182)" d="M 1033.47 705.417 C 1038.05 705.706 1044.43 713.313 1047.77 716.848 C 1044.65 721.502 1041.86 725.369 1039.59 730.542 L 1037.68 730.214 L 1035.74 726.282 C 1039 723.058 1041.69 721.304 1045.39 718.666 C 1039.56 713.885 1037.79 711.322 1033.47 705.417 z"/>
<path transform="translate(0,0)" fill="rgb(145,149,145)" d="M 1000.91 711.776 C 1005.27 705.731 1015 691.004 1022.03 689.79 C 1020.23 692.36 1007.25 709.178 1004.24 711.839 C 1003.82 712.214 1001.7 711.897 1000.91 711.776 z"/>
<path transform="translate(0,0)" fill="rgb(102,99,95)" d="M 1164.32 1123.05 C 1170.54 1126.86 1176.31 1130.4 1182.73 1133.87 L 1179.26 1135.55 C 1174.24 1134.34 1166.33 1130.73 1163.82 1126 L 1164.32 1123.05 z"/>
<path transform="translate(0,0)" fill="rgb(77,87,82)" d="M 1256.16 803.106 C 1258.37 797.516 1270.09 793.313 1276.95 788.739 L 1278.11 787.959 L 1278.93 790.321 C 1274.65 794.068 1262.55 800.781 1257.34 803.363 L 1256.16 803.106 z"/>
<path transform="translate(0,0)" fill="rgb(77,87,82)" d="M 989.731 791.564 L 987.415 791.533 C 980.21 786.934 971.69 783.301 963.902 778.376 L 963.985 776.484 C 974.132 780.589 981.547 784.091 989.731 791.564 z"/>
<path transform="translate(0,0)" fill="rgb(77,87,82)" d="M 1105.3 751.466 C 1116.33 749.404 1119.9 748.474 1130.94 750.876 L 1130.71 753.403 C 1126.23 751.028 1113.67 751.425 1109.34 753.929 C 1107.25 752.197 1107.81 752.644 1105.3 751.466 z"/>
<path transform="translate(0,0)" fill="rgb(117,118,115)" d="M 752.725 777.849 C 757.751 782.947 761.531 785.114 765.88 789.313 C 758.009 788.226 755.175 784.617 749.752 779.048 L 752.725 777.849 z"/>
<path transform="translate(0,0)" fill="rgb(2,59,40)" d="M 806.752 831.406 C 820.84 816.864 831.966 850.581 835.947 860.847 C 841.475 872.505 845.349 885.942 851.094 897.437 C 862.257 919.773 873.313 941.495 882.774 964.661 C 885.759 971.97 890.782 981.699 892.569 989.097 C 900.365 1005.25 907.894 1021.27 908.173 1039.17 C 881.002 1045.49 839.028 1043.09 810.499 1043.18 C 797.067 1043.22 741.131 1045.08 732.107 1042.22 C 728.273 1040.55 722.449 1040.03 717.061 1037.97 C 714.496 1031.63 716.023 1024.91 718.45 1018.83 C 721.387 1012.26 724.041 1005.76 727.143 999.248 C 731.177 990.786 736.598 982.008 739.823 973.296 C 755.97 945.95 765.705 912.719 780.172 883.185 C 785.377 872.843 789.949 861.677 795.23 850.948 C 797.376 845.001 799.347 839.811 803.445 834.982 C 804.715 832.124 803.895 833.448 806.752 831.406 z"/>
<path transform="translate(0,0)" fill="rgb(221,215,217)" d="M 892.569 989.097 C 900.365 1005.25 907.894 1021.27 908.173 1039.17 C 881.002 1045.49 839.028 1043.09 810.499 1043.18 C 797.067 1043.22 741.131 1045.08 732.107 1042.22 L 730.779 1038.96 L 815.914 1039.3 C 840.208 1039.59 882.473 1041.05 904.9 1036.91 C 904.285 1031.97 903.795 1027.63 902.542 1022.8 C 900.518 1015 892.467 996.247 892.569 989.097 z"/>
<path transform="translate(0,0)" fill="rgb(77,87,82)" d="M 743.995 973.648 C 743.678 979.866 725.833 1025.21 722.445 1029.52 L 721.243 1035.08 C 718.227 1035.18 719.459 1034.58 717.298 1036.52 L 717.061 1037.97 C 714.496 1031.63 716.023 1024.91 718.45 1018.83 C 721.387 1012.26 724.041 1005.76 727.143 999.248 C 731.177 990.786 736.598 982.008 739.823 973.296 L 743.995 973.648 z"/>
<path transform="translate(0,0)" fill="rgb(102,99,95)" d="M 718.45 1018.83 C 722.009 1024.35 718.364 1024.31 722.445 1029.52 L 721.243 1035.08 C 718.227 1035.18 719.459 1034.58 717.298 1036.52 L 717.061 1037.97 C 714.496 1031.63 716.023 1024.91 718.45 1018.83 z"/>
<path transform="translate(0,0)" fill="rgb(77,87,82)" d="M 780.172 883.185 L 782.513 882.742 C 784.374 888.186 772.748 900.847 771.099 906.739 C 764.621 929.886 753.67 951.608 743.995 973.648 L 739.823 973.296 C 755.97 945.95 765.705 912.719 780.172 883.185 z"/>
<path transform="translate(0,0)" fill="rgb(77,87,82)" d="M 806.752 831.406 C 820.84 816.864 831.966 850.581 835.947 860.847 C 834.44 860.6 832.741 860.252 832.107 858.657 C 828.733 850.164 823.784 844.467 818.079 837.376 C 818.071 834.604 818.242 835.401 817.515 832.776 C 813.424 832.458 810.788 832.136 806.752 831.406 z"/>
<path transform="translate(0,0)" fill="rgb(145,149,145)" d="M 803.445 834.982 C 804.278 839.994 800.899 846.597 798.109 850.582 C 796.088 851.491 797.055 851.478 795.23 850.948 C 797.376 845.001 799.347 839.811 803.445 834.982 z"/>
<path transform="translate(0,0)" fill="rgb(145,149,145)" d="M 717.061 1037.97 L 717.298 1036.52 C 719.459 1034.58 718.227 1035.18 721.243 1035.08 C 724.847 1037.77 726.286 1037.81 730.779 1038.96 L 732.107 1042.22 C 728.273 1040.55 722.449 1040.03 717.061 1037.97 z"/>
<path transform="translate(0,0)" fill="rgb(2,59,40)" d="M 1219.42 843.932 C 1221.37 834.481 1224.06 828.229 1233.11 824.275 C 1242.51 826.234 1249.1 848.798 1251.94 856.922 L 1260.51 874.164 C 1266.96 883.217 1281.73 922.375 1287.22 934.519 C 1290.11 940.898 1303.06 969.492 1304.61 974.867 L 1305.03 975.813 C 1314.27 995.809 1329.67 1012.6 1327.96 1036.84 C 1327.55 1037.59 1326.85 1038.35 1326.29 1039.04 C 1275 1042.44 1228.06 1044.32 1176.72 1043.29 C 1113.91 1043.59 1139.24 1029.56 1151.32 993.582 C 1168.34 942.858 1202.66 894.809 1218.99 845.259 L 1219.42 843.932 z"/>
<path transform="translate(0,0)" fill="rgb(145,149,145)" d="M 1219.42 843.932 L 1221.36 844.018 C 1220.34 851.388 1210.54 868.597 1207.58 876.387 C 1202.33 890.218 1197.26 904.103 1191.38 917.678 C 1184.22 934.211 1175.47 949.105 1166.64 964.72 C 1159.18 985.759 1141.12 1012.75 1142.48 1034.47 C 1142.66 1037.43 1153.43 1039.15 1156.42 1039.14 C 1197.25 1039.06 1238.17 1039.39 1279 1038.93 C 1292.14 1038.79 1305.84 1035.84 1318.84 1036 C 1322.21 1035.9 1325 1035.41 1327.96 1036.84 C 1327.55 1037.59 1326.85 1038.35 1326.29 1039.04 C 1275 1042.44 1228.06 1044.32 1176.72 1043.29 C 1113.91 1043.59 1139.24 1029.56 1151.32 993.582 C 1168.34 942.858 1202.66 894.809 1218.99 845.259 L 1219.42 843.932 z"/>
<path transform="translate(0,0)" fill="url(#Gradient2)" d="M 1318.84 1036 C 1318.53 1032.49 1319.27 1030.4 1318.68 1025.26 C 1317.52 1015.12 1302.79 983.755 1302.76 976.587 L 1304.61 974.867 L 1305.03 975.813 C 1314.27 995.809 1329.67 1012.6 1327.96 1036.84 C 1325 1035.41 1322.21 1035.9 1318.84 1036 z"/>
<path transform="translate(0,0)" fill="rgb(145,149,145)" d="M 1233.11 824.275 C 1242.51 826.234 1249.1 848.798 1251.94 856.922 L 1250.06 858.091 C 1250.49 858.765 1232.59 822.306 1233.11 824.275 z"/>
<path transform="translate(0,0)" fill="rgb(47,67,61)" d="M 1251.94 856.922 L 1260.51 874.164 C 1252.73 870.369 1252.04 865.848 1250.06 858.091 L 1251.94 856.922 z"/>
<path transform="translate(0,0)" fill="rgb(2,59,40)" d="M 1022.4 1718.05 C 1031.77 1690.65 1046.13 1665.22 1064.77 1643.06 C 1071.82 1634.78 1080.08 1627.36 1087.02 1619.26 C 1100.82 1603.15 1112.81 1585.95 1131.14 1574.44 C 1141.19 1568.14 1151.63 1558.23 1161.78 1552.42 C 1202.33 1529.19 1248.17 1507.22 1295.51 1504.66 C 1300.04 1504.45 1307.23 1501.78 1311.58 1502.03 C 1332.62 1503.27 1352.98 1494.96 1373.47 1498.96 C 1388.89 1502.2 1418.68 1499.97 1424.37 1502.11 C 1430.21 1503.4 1454.28 1506.08 1457.16 1507.63 C 1467.65 1508.72 1479.55 1512.38 1489.76 1515.24 C 1528.63 1526.13 1589.87 1552.32 1630.13 1549.29 C 1640.63 1548.7 1652.2 1548.31 1662.69 1549.17 C 1688.08 1549 1703.35 1541.43 1725.22 1540.08 C 1729.34 1543.24 1735.44 1548.42 1737.23 1553.53 C 1740.68 1556.3 1742.05 1557.46 1745.06 1560.66 C 1757.68 1576.17 1772.57 1589.35 1784.1 1604.76 C 1801.53 1628.03 1817.15 1646.66 1837.04 1667.63 C 1847.48 1679.35 1880.31 1715.37 1879.94 1729.51 C 1879.25 1730.7 1879.07 1731.29 1878.11 1732.2 L 1875 1735.49 C 1868.82 1741.32 1834.91 1746.47 1825.07 1748.4 C 1734.27 1766.19 1645.66 1749.01 1557.48 1726.76 C 1512.93 1715.52 1455.66 1698.56 1410.17 1698.33 C 1404.89 1699.53 1402.44 1699.11 1397.09 1698.82 C 1395.42 1698.59 1393.59 1698.01 1392.07 1697.66 C 1372.81 1693.3 1321.17 1692.54 1304.18 1698.69 C 1298.4 1699.36 1296.62 1699.69 1290.76 1698.94 C 1242.88 1698.06 1173.88 1725.22 1133.36 1749.67 C 1123.45 1755.65 1107.37 1767.83 1098.59 1772.31 C 1096.62 1774.84 1094.14 1776.6 1091.34 1778.17 C 1084.49 1784.38 1078.13 1791.1 1072.32 1798.29 C 1068.27 1803.33 1064.84 1809.07 1060.29 1813.13 C 1049.46 1823.56 1032.82 1848.13 1023.27 1852.45 L 1017.83 1853.39 C 1013.13 1852.11 1011.43 1849.2 1008.96 1845.34 C 1002.96 1835.37 998.261 1829.06 990.831 1820.17 C 984.758 1814.16 980.638 1810.32 975.665 1803.45 C 970.32 1796.14 963.746 1789.75 957.937 1782.58 C 956.396 1781.9 956.428 1782.1 955.407 1781.18 C 905.441 1736.13 839.629 1710.49 773.925 1699.48 C 768.298 1698.54 761.497 1699.61 755.951 1699.19 C 749.496 1698.7 739.663 1701 734.511 1696.96 C 729.568 1694.25 711.856 1694.42 705.581 1694.36 C 637.925 1694.12 570.563 1703.26 505.415 1721.51 C 394.47 1753.77 283.743 1770.46 171.453 1737.35 C 170.885 1737.18 169.229 1735.82 168.685 1735.39 C 160.739 1723.11 167.408 1719.62 174.96 1709.48 C 195.126 1677.71 222.869 1653.01 246.16 1623.71 C 248.978 1620.17 252.125 1616.64 255.054 1613.17 C 267.915 1593.58 273.595 1589.44 289.779 1572.32 C 299.627 1561.9 301.755 1555.47 314.199 1545.16 C 317.695 1543.25 320.288 1541.86 323.926 1540.27 C 359.719 1548.94 384.742 1549.96 421.403 1549.01 C 426.183 1548.89 440.732 1547.16 442.581 1547.18 C 452.376 1544.26 466.761 1543.39 477.538 1540.28 C 503.153 1532.89 578.682 1503.61 602.318 1505.13 C 606.744 1504.12 609.604 1503.5 614.102 1503 C 621.28 1498.35 652.426 1503.86 666.69 1498.59 C 673.695 1497.5 688.424 1495.04 694.104 1499.06 C 702.242 1502.56 744.731 1500.06 753.059 1504.87 C 798.191 1506.21 898.395 1553.46 928.195 1586.81 C 935.749 1593.18 945.667 1604.67 952.511 1612.35 C 965.46 1628.46 998.067 1661.23 1004.46 1678.22 C 1012.87 1693.26 1015.87 1702.23 1022.4 1718.05 z"/>
<path transform="translate(0,0)" fill="rgb(184,186,182)" d="M 170.213 1733.48 C 182.98 1739.07 220.357 1745.18 234.437 1747.3 C 316.042 1759.57 397.957 1746.23 477.327 1726.47 C 515.506 1716.96 552.285 1705.43 592.091 1699.74 C 624.613 1695.09 660.685 1691.13 693.663 1690.83 C 710.485 1690.67 728.17 1693.5 745.019 1694.68 C 740.637 1694.86 737.87 1694.45 734.511 1696.96 C 729.568 1694.25 711.856 1694.42 705.581 1694.36 C 637.925 1694.12 570.563 1703.26 505.415 1721.51 C 394.47 1753.77 283.743 1770.46 171.453 1737.35 C 170.885 1737.18 169.229 1735.82 168.685 1735.39 L 170.213 1733.48 z"/>
<path transform="translate(0,0)" fill="rgb(145,149,145)" d="M 1022.4 1718.05 C 1031.77 1690.65 1046.13 1665.22 1064.77 1643.06 C 1071.82 1634.78 1080.08 1627.36 1087.02 1619.26 C 1100.82 1603.15 1112.81 1585.95 1131.14 1574.44 C 1141.19 1568.14 1151.63 1558.23 1161.78 1552.42 C 1202.33 1529.19 1248.17 1507.22 1295.51 1504.66 C 1300.04 1504.45 1307.23 1501.78 1311.58 1502.03 C 1332.62 1503.27 1352.98 1494.96 1373.47 1498.96 L 1372.03 1500.99 C 1355.08 1500.07 1343.02 1502.53 1326.78 1503.29 C 1204.2 1509.02 1097.48 1585.19 1037.12 1689.73 C 1033.14 1696.63 1026.6 1718.84 1021.51 1723.15 L 1021.23 1722.25 C 1018.82 1714.84 1006.75 1688.83 1003.04 1681.33 L 1004.46 1678.22 C 1012.87 1693.26 1015.87 1702.23 1022.4 1718.05 z"/>
<path transform="translate(0,0)" fill="rgb(184,186,182)" d="M 1408.97 1695.23 C 1426.85 1695.08 1448.11 1699.58 1465.82 1702.3 C 1497.07 1707.03 1527.87 1717.03 1558.37 1724.27 C 1605.43 1735.44 1655.01 1747.4 1703.2 1750.88 C 1747.4 1754.08 1790.4 1752.1 1833.74 1743.43 C 1842.31 1741.71 1868.64 1734.5 1875 1735.49 C 1868.82 1741.32 1834.91 1746.47 1825.07 1748.4 C 1734.27 1766.19 1645.66 1749.01 1557.48 1726.76 C 1512.93 1715.52 1455.66 1698.56 1410.17 1698.33 L 1408.97 1695.23 z"/>
<path transform="translate(0,0)" fill="rgb(184,186,182)" d="M 1457.16 1507.63 C 1467.65 1508.72 1479.55 1512.38 1489.76 1515.24 C 1528.63 1526.13 1589.87 1552.32 1630.13 1549.29 C 1640.63 1548.7 1652.2 1548.31 1662.69 1549.17 C 1665.92 1549.79 1669.16 1550.31 1672.41 1550.73 C 1670.28 1552.65 1669.87 1552.33 1666.85 1553.08 L 1658.02 1553.12 C 1604.62 1560.33 1545.43 1535.53 1495.33 1520.16 C 1489.06 1518.23 1458.36 1511.56 1457.16 1507.63 z"/>
<path transform="translate(0,0)" fill="rgb(221,215,217)" d="M 1630.13 1549.29 C 1640.63 1548.7 1652.2 1548.31 1662.69 1549.17 C 1665.92 1549.79 1669.16 1550.31 1672.41 1550.73 C 1670.28 1552.65 1669.87 1552.33 1666.85 1553.08 L 1658.02 1553.12 C 1651.86 1552.41 1632.94 1554.16 1629.58 1551.52 L 1630.13 1549.29 z"/>
<path transform="translate(0,0)" fill="rgb(184,186,182)" d="M 314.199 1545.16 L 312.133 1550.53 C 304.386 1558.64 298.346 1568.04 291.795 1574.93 C 277.671 1589.78 267.96 1600.67 255.176 1616.51 C 238.39 1637.9 222.564 1657.11 204.215 1677.14 C 194.87 1687.34 188.32 1700.28 177.433 1710.55 L 174.96 1709.48 C 195.126 1677.71 222.869 1653.01 246.16 1623.71 C 248.978 1620.17 252.125 1616.64 255.054 1613.17 C 267.915 1593.58 273.595 1589.44 289.779 1572.32 C 299.627 1561.9 301.755 1555.47 314.199 1545.16 z"/>
<path transform="translate(0,0)" fill="rgb(154,163,161)" d="M 745.019 1694.68 C 796.518 1695.17 855.698 1715.07 900.738 1739.14 C 909.206 1743.67 955.601 1775.7 958.586 1781.58 L 957.937 1782.58 C 956.396 1781.9 956.428 1782.1 955.407 1781.18 C 905.441 1736.13 839.629 1710.49 773.925 1699.48 C 768.298 1698.54 761.497 1699.61 755.951 1699.19 C 749.496 1698.7 739.663 1701 734.511 1696.96 C 737.87 1694.45 740.637 1694.86 745.019 1694.68 z"/>
<path transform="translate(0,0)" fill="rgb(184,186,182)" d="M 1098.59 1772.31 C 1098.96 1771.41 1099.33 1770.27 1100.12 1769.63 C 1152.26 1727.45 1222.82 1699.74 1290 1695.01 L 1290.76 1698.94 C 1242.88 1698.06 1173.88 1725.22 1133.36 1749.67 C 1123.45 1755.65 1107.37 1767.83 1098.59 1772.31 z"/>
<path transform="translate(0,0)" fill="rgb(184,186,182)" d="M 753.059 1504.87 C 798.191 1506.21 898.395 1553.46 928.195 1586.81 L 924.991 1588.17 C 895.146 1558.09 827.44 1525.85 786.751 1513.91 C 779.204 1511.7 757.136 1508.06 753.059 1504.87 z"/>
<path transform="translate(0,0)" fill="rgb(123,133,129)" d="M 323.926 1540.27 C 359.719 1548.94 384.742 1549.96 421.403 1549.01 C 426.183 1548.89 440.732 1547.16 442.581 1547.18 L 446.848 1549.65 C 421.473 1555.14 388.929 1556.04 363.534 1551.72 C 350.969 1549.58 337.209 1545.27 324.475 1544.78 C 319.2 1544.58 315.923 1547.21 312.133 1550.53 L 314.199 1545.16 C 317.695 1543.25 320.288 1541.86 323.926 1540.27 z"/>
<path transform="translate(0,0)" fill="rgb(154,163,161)" d="M 442.581 1547.18 C 452.376 1544.26 466.761 1543.39 477.538 1540.28 C 503.153 1532.89 578.682 1503.61 602.318 1505.13 C 595.544 1508.88 580.286 1510.2 571.846 1512.75 C 529.219 1525.63 490.842 1541.73 446.848 1549.65 L 442.581 1547.18 z"/>
<path transform="translate(0,0)" fill="rgb(99,113,106)" d="M 1834.09 1669.31 C 1821.12 1660.94 1789.02 1614.28 1776.9 1600.52 C 1765.46 1587.53 1752.02 1578.65 1743.83 1562.34 L 1745.06 1560.66 C 1757.68 1576.17 1772.57 1589.35 1784.1 1604.76 C 1801.53 1628.03 1817.15 1646.66 1837.04 1667.63 L 1834.09 1669.31 z"/>
<path transform="translate(0,0)" fill="rgb(123,133,129)" d="M 1302.2 1694.63 C 1326.72 1689.15 1362.49 1690.98 1387.57 1693.27 C 1389.69 1693.46 1399.62 1694.09 1400.91 1694.57 L 1408.97 1695.23 L 1410.17 1698.33 C 1404.89 1699.53 1402.44 1699.11 1397.09 1698.82 C 1395.42 1698.59 1393.59 1698.01 1392.07 1697.66 C 1372.81 1693.3 1321.17 1692.54 1304.18 1698.69 L 1304.24 1696.49 L 1302.2 1694.63 z"/>
<path transform="translate(0,0)" fill="rgb(221,215,217)" d="M 1400.91 1694.57 L 1408.97 1695.23 L 1410.17 1698.33 C 1404.89 1699.53 1402.44 1699.11 1397.09 1698.82 L 1396.57 1697.53 L 1397.34 1695.76 L 1400.91 1694.57 z"/>
<path transform="translate(0,0)" fill="rgb(184,186,182)" d="M 1834.09 1669.31 L 1837.04 1667.63 C 1847.48 1679.35 1880.31 1715.37 1879.94 1729.51 C 1879.25 1730.7 1879.07 1731.29 1878.11 1732.2 C 1875.22 1729.83 1875.77 1726.23 1874.42 1723.07 C 1869.25 1710.96 1843.04 1677.85 1834.09 1669.31 z"/>
<path transform="translate(0,0)" fill="rgb(47,67,61)" d="M 952.511 1612.35 C 965.46 1628.46 998.067 1661.23 1004.46 1678.22 L 1003.04 1681.33 C 996.102 1672.92 995.812 1668.59 989.414 1660.34 C 976.764 1644.05 962.323 1629.27 949.841 1612.91 L 952.511 1612.35 z"/>
<path transform="translate(0,0)" fill="rgb(145,149,145)" d="M 1662.69 1549.17 C 1688.08 1549 1703.35 1541.43 1725.22 1540.08 C 1729.34 1543.24 1735.44 1548.42 1737.23 1553.53 C 1733.4 1551.45 1728.77 1547.31 1725.3 1544.45 C 1706.03 1544.19 1687.36 1553.08 1666.85 1553.08 C 1669.87 1552.33 1670.28 1552.65 1672.41 1550.73 C 1669.16 1550.31 1665.92 1549.79 1662.69 1549.17 z"/>
<path transform="translate(0,0)" fill="rgb(117,118,115)" d="M 1023.27 1852.45 C 1023.17 1851.86 1023.07 1851.27 1022.98 1850.68 C 1032.5 1837.82 1046.16 1819.6 1058.31 1809.42 L 1060.29 1813.13 C 1049.46 1823.56 1032.82 1848.13 1023.27 1852.45 z"/>
<path transform="translate(0,0)" fill="rgb(77,87,82)" d="M 614.102 1503 C 621.28 1498.35 652.426 1503.86 666.69 1498.59 L 669.927 1500.76 C 659.636 1502.97 622.69 1506.31 614.102 1503 z"/>
<path transform="translate(0,0)" fill="rgb(47,67,61)" d="M 1373.47 1498.96 C 1388.89 1502.2 1418.68 1499.97 1424.37 1502.11 C 1418.54 1507.05 1381.1 1502.92 1372.03 1500.99 L 1373.47 1498.96 z"/>
<path transform="translate(0,0)" fill="rgb(102,99,95)" d="M 928.195 1586.81 C 935.749 1593.18 945.667 1604.67 952.511 1612.35 L 949.841 1612.91 C 944.609 1606.45 932.417 1597.07 924.991 1588.17 L 928.195 1586.81 z"/>
<path transform="translate(0,0)" fill="rgb(184,186,182)" d="M 1058.31 1809.42 C 1064.49 1803.94 1085.62 1777.34 1091.34 1778.17 C 1084.49 1784.38 1078.13 1791.1 1072.32 1798.29 C 1068.27 1803.33 1064.84 1809.07 1060.29 1813.13 L 1058.31 1809.42 z"/>
<path transform="translate(0,0)" fill="rgb(123,133,129)" d="M 993.978 1818.69 C 1000.21 1825.03 1005.67 1834.67 1010.15 1842.35 L 1008.96 1845.34 C 1002.96 1835.37 998.261 1829.06 990.831 1820.17 L 993.978 1818.69 z"/>
<path transform="translate(0,0)" fill="rgb(124,162,141)" d="M 168.685 1735.39 C 160.739 1723.11 167.408 1719.62 174.96 1709.48 L 177.433 1710.55 C 173.081 1716.58 168.126 1722.05 167.598 1729.42 C 168.483 1731.84 168.341 1731.73 170.213 1733.48 L 168.685 1735.39 z"/>
<path transform="translate(0,0)" fill="rgb(124,162,141)" d="M 666.69 1498.59 C 673.695 1497.5 688.424 1495.04 694.104 1499.06 C 686.862 1501.18 677.548 1500.81 669.927 1500.76 L 666.69 1498.59 z"/>
<path transform="translate(0,0)" fill="rgb(184,186,182)" d="M 978.26 1802.3 C 983.462 1808.32 988.738 1813.02 993.978 1818.69 L 990.831 1820.17 C 984.758 1814.16 980.638 1810.32 975.665 1803.45 L 978.26 1802.3 z"/>
<path transform="translate(0,0)" fill="rgb(117,118,115)" d="M 958.586 1781.58 C 965.531 1786.24 972.852 1795.76 978.26 1802.3 L 975.665 1803.45 C 970.32 1796.14 963.746 1789.75 957.937 1782.58 L 958.586 1781.58 z"/>
<path transform="translate(0,0)" fill="rgb(221,215,217)" d="M 1290 1695.01 L 1302.2 1694.63 L 1304.24 1696.49 L 1304.18 1698.69 C 1298.4 1699.36 1296.62 1699.69 1290.76 1698.94 L 1290 1695.01 z"/>
<path transform="translate(0,0)" fill="rgb(184,186,182)" d="M 1010.15 1842.35 C 1014.15 1846.54 1016.19 1847.81 1017.83 1853.39 C 1013.13 1852.11 1011.43 1849.2 1008.96 1845.34 L 1010.15 1842.35 z"/>
<path transform="translate(0,0)" fill="rgb(2,59,40)" d="M 1115.53 1890.92 C 1119.8 1881.25 1129.78 1850.01 1136.2 1847.8 C 1148.08 1843.71 1193.4 1845.22 1207.19 1845.18 L 1332.51 1845.14 C 1359.87 1845.09 1386.72 1843.51 1413.94 1844.62 C 1422.72 1844.98 1432.91 1844.23 1441.34 1846.27 C 1447.07 1847.85 1455.12 1847.08 1459 1848.92 L 1588.92 1848.99 C 1619.76 1849.01 1653.12 1849.7 1683.77 1848.08 C 1686.31 1846.8 1686.84 1847.15 1689.86 1847.04 C 1697.62 1843.41 1713.43 1844.05 1721.4 1846.09 C 1724.14 1847.3 1736.33 1847.75 1738.61 1846.08 C 1745.17 1844.26 1759.59 1845.01 1766.91 1845.06 C 1774.87 1844.65 1786.38 1843.98 1794.3 1845.04 C 1796.81 1846.11 1795.03 1845.73 1796.95 1845.53 C 1811.81 1844.02 1829.92 1844.89 1844.97 1845.11 L 1909.54 1844.92 C 1933.7 1844.86 1975.74 1840.61 1988.7 1865.67 C 1991.11 1868.06 1995.64 1876.48 1997.08 1879.74 L 1998.89 1882.07 C 1998.09 1887.19 1998.82 1889.12 1998.78 1893.57 C 1998.68 1904.85 1986 1918.17 1976.42 1923.32 C 1959.91 1931.34 1944.04 1930.66 1926.19 1930.86 C 1910.35 1931.03 1894.51 1930.97 1878.68 1930.96 L 1740.43 1930.48 C 1708.94 1930.52 1677.48 1930.98 1645.99 1931.54 C 1640.16 1931.64 1637.12 1932.72 1631.67 1930.08 C 1625.38 1922.79 1595.89 1928.05 1587.36 1931.04 C 1585.17 1931.8 1583.05 1928.91 1581.58 1927.49 C 1574.52 1926.28 1546.76 1926.19 1541.29 1929.84 C 1533.55 1932.07 1491.67 1931.98 1482.84 1931.06 C 1445.73 1931.26 1208.11 1928.2 1200.23 1932.5 C 1187.71 1956.63 1164 1981.35 1140.47 1994.49 C 1136.17 1996.9 1131.06 2001.13 1126.73 2003.31 C 1113.47 2012.31 1067.84 2028.34 1053.87 2027.21 C 1040.84 2026.88 1037.23 2029.79 1025.42 2031.06 C 1023.04 2031.31 1012.62 2027.91 1009.53 2027.39 C 1004.42 2026.52 998.582 2026.81 993.333 2026.86 C 985.424 2028.12 981.474 2026.22 973.924 2024.5 C 941.027 2017.01 909.885 2000.64 883.551 1979.72 C 878.941 1976.06 870.56 1964.44 865.736 1959.18 C 857.534 1950.54 849.825 1938.24 841.789 1931.1 C 824.473 1929.97 799.274 1930.72 781.533 1930.73 C 747.729 1930.43 713.924 1930.52 680.122 1931 C 670.195 1931.5 642.533 1933.86 634.907 1929.9 L 632.244 1930.16 C 625.074 1932.77 610.694 1931.93 603.045 1930.96 C 594.142 1931.01 563.095 1933.01 558.029 1929.1 C 555.077 1927.65 548.895 1928.47 545.85 1929.56 C 539.111 1933.01 515.378 1932.53 507.888 1930.11 C 503.907 1926.73 481.362 1927.38 477.456 1930 C 465.796 1932.78 427.864 1932.28 414.805 1931.05 C 388.917 1931.92 359.827 1930.91 333.79 1930.62 C 310.465 1930.56 287.14 1930.63 263.816 1930.84 L 151.599 1930.94 C 142.547 1930.94 94.4103 1932.16 89.4231 1929.02 C 86.56 1929.16 85.5721 1928.64 82.7422 1927.95 C 81.4083 1927.35 79.4662 1926.71 77.9945 1926.74 C 63.0397 1927.03 39.5802 1899.88 44.7156 1885.61 C 47.1718 1877.51 62.0985 1852.59 70.6871 1850.5 C 114.431 1839.85 170.03 1844.89 214.525 1845.17 C 238.353 1845.32 272.129 1841.39 290.815 1847 C 294.16 1846.74 299.07 1846.29 302.108 1847.98 C 318.776 1849.53 337.31 1849.05 354.195 1849.04 L 430.963 1848.99 L 686.768 1849.22 C 695.235 1848.2 719.631 1849.58 726.636 1846.14 C 735.497 1843.27 895.825 1843.87 903.764 1847.46 L 906.893 1847.92 C 909.316 1848.52 910.342 1848.14 911.376 1850.69 C 916.786 1864.06 922.051 1876.78 928.534 1889.72 L 929.317 1890.74 C 939.315 1903.94 940.769 1907.85 955.098 1919.69 C 978.86 1936.25 1011.35 1944.8 1039.94 1940.35 C 1042.13 1939.7 1047.66 1939.52 1052.15 1938.14 C 1064.95 1934.21 1075.32 1928.81 1086.92 1922.35 C 1087.27 1921.66 1096.25 1913.94 1097.56 1912.71 C 1105.02 1905.69 1110.37 1899.71 1115.53 1890.92 z"/>
<path transform="translate(0,0)" fill="rgb(184,186,182)" d="M 1115.53 1890.92 C 1119.8 1881.25 1129.78 1850.01 1136.2 1847.8 C 1148.08 1843.71 1193.4 1845.22 1207.19 1845.18 L 1332.51 1845.14 C 1359.87 1845.09 1386.72 1843.51 1413.94 1844.62 C 1422.72 1844.98 1432.91 1844.23 1441.34 1846.27 C 1435.56 1850.71 1349.15 1848.04 1334.22 1848.29 C 1300.7 1848.83 1263.97 1848.62 1230.36 1848.07 C 1210.02 1847.7 1189.68 1847.57 1169.34 1847.68 C 1163.68 1847.7 1147.79 1847.43 1143.02 1848.39 C 1126.49 1851.72 1129.3 1886.31 1115.53 1890.92 z"/>
<path transform="translate(0,0)" fill="rgb(221,215,217)" d="M 82.7422 1927.95 C 81.4083 1927.35 79.4662 1926.71 77.9945 1926.74 C 63.0397 1927.03 39.5802 1899.88 44.7156 1885.61 C 47.1718 1877.51 62.0985 1852.59 70.6871 1850.5 C 114.431 1839.85 170.03 1844.89 214.525 1845.17 C 238.353 1845.32 272.129 1841.39 290.815 1847 C 279.499 1850.63 252.946 1848.29 240.365 1848.32 C 215.82 1848.39 191.073 1848.23 166.505 1848.75 C 135.916 1850.16 103.234 1844.37 73.5538 1852.73 C 65.8453 1854.9 60.3826 1864.34 56.2123 1870.41 C 41.5216 1891.8 51.4291 1909.17 70.976 1922.36 C 74.229 1924.55 79.413 1925.78 82.7422 1927.95 z"/>
<path transform="translate(0,0)" fill="rgb(117,118,115)" d="M 1631.67 1930.08 C 1632.34 1929.36 1633 1928.64 1633.67 1927.92 C 1642.35 1927.13 1671.53 1927.72 1678.47 1927.69 C 1730.14 1927.08 1781.83 1927 1833.51 1927.46 C 1858.92 1927.76 1884.34 1927.81 1909.76 1927.59 C 1929.45 1927.55 1957.12 1929.72 1974.83 1921.9 L 1976.42 1923.32 C 1959.91 1931.34 1944.04 1930.66 1926.19 1930.86 C 1910.35 1931.03 1894.51 1930.97 1878.68 1930.96 L 1740.43 1930.48 C 1708.94 1930.52 1677.48 1930.98 1645.99 1931.54 C 1640.16 1931.64 1637.12 1932.72 1631.67 1930.08 z"/>
<path transform="translate(0,0)" fill="rgb(123,133,129)" d="M 89.4231 1929.02 C 96.5781 1925.78 254.748 1928.08 275.131 1928.1 L 369.476 1927.6 C 383.461 1927.58 400.05 1927.18 413.751 1927.94 L 414.805 1931.05 C 388.917 1931.92 359.827 1930.91 333.79 1930.62 C 310.465 1930.56 287.14 1930.63 263.816 1930.84 L 151.599 1930.94 C 142.547 1930.94 94.4103 1932.16 89.4231 1929.02 z"/>
<path transform="translate(0,0)" fill="rgb(123,133,129)" d="M 302.108 1847.98 C 318.776 1849.53 337.31 1849.05 354.195 1849.04 L 430.963 1848.99 L 686.768 1849.22 C 681.707 1852.15 642.945 1851.46 634.99 1851.46 L 549.3 1851.48 L 399.99 1851.61 C 372.42 1851.61 344.551 1851.86 316.998 1851.21 C 311.349 1851.07 306.339 1851.41 302.108 1847.98 z"/>
<path transform="translate(0,0)" fill="rgb(117,118,115)" d="M 1198.91 1930 C 1204.94 1927.19 1236.14 1928.01 1244.7 1927.97 L 1318.77 1927.68 C 1354.3 1927.27 1389.84 1927.23 1425.38 1927.56 C 1443.42 1927.61 1464 1927.09 1481.83 1927.96 L 1482.84 1931.06 C 1445.73 1931.26 1208.11 1928.2 1200.23 1932.5 L 1198.91 1930 z"/>
<path transform="translate(0,0)" fill="rgb(123,133,129)" d="M 682.431 1927.83 C 714.341 1925.97 752.544 1928.21 785.01 1927.91 C 796.873 1927.8 835.755 1927.34 845.516 1929.37 C 853.992 1939.11 860.777 1948.73 868.92 1958.51 L 865.736 1959.18 C 857.534 1950.54 849.825 1938.24 841.789 1931.1 C 824.473 1929.97 799.274 1930.72 781.533 1930.73 C 747.729 1930.43 713.924 1930.52 680.122 1931 L 682.431 1927.83 z"/>
<path transform="translate(0,0)" fill="rgb(221,215,217)" d="M 726.636 1846.14 C 735.497 1843.27 895.825 1843.87 903.764 1847.46 C 900.514 1849.02 880.862 1848.28 876.294 1848.27 L 801.117 1848.11 L 753.957 1848.22 C 747.726 1848.23 730.733 1849.56 726.636 1846.14 z"/>
<path transform="translate(0,0)" fill="rgb(99,113,106)" d="M 1683.77 1848.08 C 1678.23 1852.17 1466.49 1853.89 1459 1848.92 L 1588.92 1848.99 C 1619.76 1849.01 1653.12 1849.7 1683.77 1848.08 z"/>
<path transform="translate(0,0)" fill="rgb(145,149,145)" d="M 1844.97 1845.11 L 1909.54 1844.92 C 1933.7 1844.86 1975.74 1840.61 1988.7 1865.67 C 1983.5 1863.32 1974.63 1853.1 1967.63 1851.52 C 1937.76 1844.76 1900.66 1849.86 1869.58 1848.76 C 1861.87 1848.49 1851.01 1849.4 1844.36 1848.2 L 1845.4 1847.37 L 1844.97 1845.11 z"/>
<path transform="translate(0,0)" fill="rgb(145,149,145)" d="M 868.92 1958.51 C 892.812 1994.77 951.392 2019.09 993.565 2023.09 L 993.333 2026.86 C 985.424 2028.12 981.474 2026.22 973.924 2024.5 C 941.027 2017.01 909.885 2000.64 883.551 1979.72 C 878.941 1976.06 870.56 1964.44 865.736 1959.18 L 868.92 1958.51 z"/>
<path transform="translate(0,0)" fill="rgb(145,149,145)" d="M 1198.91 1930 L 1200.23 1932.5 C 1187.71 1956.63 1164 1981.35 1140.47 1994.49 C 1136.17 1996.9 1131.06 2001.13 1126.73 2003.31 L 1125.96 2000.5 C 1144.03 1986.07 1158.72 1981.12 1174.24 1961.4 C 1179.86 1954.25 1193.99 1934.09 1198.91 1930 z"/>
<path transform="translate(0,0)" fill="rgb(184,186,182)" d="M 955.098 1919.69 C 978.86 1936.25 1011.35 1944.8 1039.94 1940.35 C 1043.48 1940.73 1043.65 1940.49 1046.54 1942.73 C 1036.91 1945.73 1015.59 1945.55 1005.54 1943.84 C 993.883 1941.86 958.089 1931.87 955.098 1919.69 z"/>
<path transform="translate(0,0)" fill="rgb(184,186,182)" d="M 1125.96 2000.5 L 1126.73 2003.31 C 1113.47 2012.31 1067.84 2028.34 1053.87 2027.21 L 1054.75 2023.12 C 1076.31 2021.68 1106.75 2010.46 1125.96 2000.5 z"/>
<path transform="translate(0,0)" fill="rgb(145,149,145)" d="M 993.565 2023.09 C 1007.58 2022.69 1020.37 2026.55 1034.13 2025.16 C 1041.04 2024.46 1047.79 2023.45 1054.75 2023.12 L 1053.87 2027.21 C 1040.84 2026.88 1037.23 2029.79 1025.42 2031.06 C 1023.04 2031.31 1012.62 2027.91 1009.53 2027.39 C 1004.42 2026.52 998.582 2026.81 993.333 2026.86 L 993.565 2023.09 z"/>
<path transform="translate(0,0)" fill="rgb(254,253,253)" d="M 413.751 1927.94 C 424.168 1927.8 471.339 1925.81 477.456 1930 C 465.796 1932.78 427.864 1932.28 414.805 1931.05 L 413.751 1927.94 z"/>
<path transform="translate(0,0)" fill="rgb(154,163,161)" d="M 1974.83 1921.9 C 1986.99 1912.25 1995.24 1902.38 1994 1886.01 C 1993.74 1882.56 1994.79 1881.63 1997.08 1879.74 L 1998.89 1882.07 C 1998.09 1887.19 1998.82 1889.12 1998.78 1893.57 C 1998.68 1904.85 1986 1918.17 1976.42 1923.32 L 1974.83 1921.9 z"/>
<path transform="translate(0,0)" fill="rgb(184,186,182)" d="M 906.893 1847.92 C 909.316 1848.52 910.342 1848.14 911.376 1850.69 C 916.786 1864.06 922.051 1876.78 928.534 1889.72 C 918.553 1883.43 907.194 1859.52 906.893 1847.92 z"/>
<path transform="translate(0,0)" fill="rgb(254,253,253)" d="M 1481.83 1927.96 C 1490.34 1927.93 1537.1 1926.54 1541.29 1929.84 C 1533.55 1932.07 1491.67 1931.98 1482.84 1931.06 L 1481.83 1927.96 z"/>
<path transform="translate(0,0)" fill="rgb(221,215,217)" d="M 1794.3 1845.04 C 1796.81 1846.11 1795.03 1845.73 1796.95 1845.53 C 1811.81 1844.02 1829.92 1844.89 1844.97 1845.11 L 1845.4 1847.37 L 1844.36 1848.2 C 1826.49 1848.4 1808.62 1848.43 1790.75 1848.27 L 1794.3 1845.04 z"/>
<path transform="translate(0,0)" fill="rgb(77,87,82)" d="M 1086.92 1922.35 C 1082.54 1935.22 1058.58 1941.24 1046.54 1942.73 C 1043.65 1940.49 1043.48 1940.73 1039.94 1940.35 C 1042.13 1939.7 1047.66 1939.52 1052.15 1938.14 C 1064.95 1934.21 1075.32 1928.81 1086.92 1922.35 z"/>
<path transform="translate(0,0)" fill="rgb(254,253,253)" d="M 634.907 1929.9 C 639.583 1926.02 673.505 1927.83 682.431 1927.83 L 680.122 1931 C 670.195 1931.5 642.533 1933.86 634.907 1929.9 z"/>
<path transform="translate(0,0)" fill="rgb(184,186,182)" d="M 558.029 1929.1 C 563.17 1926.59 596.591 1927.87 604.228 1927.98 L 603.045 1930.96 C 594.142 1931.01 563.095 1933.01 558.029 1929.1 z"/>
<path transform="translate(0,0)" fill="rgb(254,253,253)" d="M 507.888 1930.11 C 509.944 1927.75 510.053 1927.52 514.295 1927.55 C 520.891 1927.6 541.11 1926.46 545.85 1929.56 C 539.111 1933.01 515.378 1932.53 507.888 1930.11 z"/>
<path transform="translate(0,0)" fill="rgb(254,253,253)" d="M 604.228 1927.98 C 609.94 1927.85 629.235 1926.17 632.244 1930.16 C 625.074 1932.77 610.694 1931.93 603.045 1930.96 L 604.228 1927.98 z"/>
<path transform="translate(0,0)" fill="rgb(254,253,253)" d="M 1766.91 1845.06 C 1774.87 1844.65 1786.38 1843.98 1794.3 1845.04 L 1790.75 1848.27 C 1782.68 1848.48 1774.45 1848.33 1766.36 1848.26 L 1766.91 1845.06 z"/>
<path transform="translate(0,0)" fill="rgb(221,215,217)" d="M 1689.86 1847.04 C 1697.62 1843.41 1713.43 1844.05 1721.4 1846.09 C 1716.5 1849.81 1695.56 1849.19 1689.86 1847.04 z"/>
<path transform="translate(0,0)" fill="rgb(221,215,217)" d="M 1738.61 1846.08 C 1745.17 1844.26 1759.59 1845.01 1766.91 1845.06 L 1766.36 1848.26 C 1759.61 1848.34 1742.88 1849.64 1738.61 1846.08 z"/>
<path transform="translate(0,0)" fill="rgb(2,59,40)" d="M 1196.13 237.74 C 1213.12 230.512 1228.37 228.14 1246.77 228.949 C 1281.39 230.471 1324.05 224.43 1356.09 240.291 C 1354.37 270.528 1344.39 305.385 1331.05 332.741 C 1323.65 347.923 1284.91 394.157 1270.39 400.792 C 1262.34 406.775 1223.58 430.187 1214.54 430.558 C 1193.3 441.727 1162.35 443.797 1138.81 443.195 C 1112.71 442.526 1087.41 446.579 1064.48 431.132 C 1064.35 427.9 1063.68 424.365 1063.17 421.145 C 1069.42 417.822 1072.13 416.478 1078.8 414.102 C 1079.38 413.379 1135.48 377.434 1139.13 375.486 C 1153.29 366.675 1165.93 356.378 1179.59 346.763 C 1186.46 341.933 1197.63 338.953 1200.77 332.969 L 1200.19 331.751 C 1174.66 338.117 1057.66 396.999 1049.2 395.4 L 1045.38 391.279 C 1037.93 385.96 1041.54 382.646 1042.81 375.445 L 1043.06 373.981 C 1045.14 368.61 1048.81 365.091 1052.64 360.824 C 1065.75 338.174 1074.8 327.675 1089.76 306.985 L 1092.07 303.64 C 1096.01 297.038 1109.84 283.365 1116.84 279.153 C 1118.24 277.2 1142.59 261.77 1145.84 259.844 C 1151.29 256.01 1155.67 254.167 1161.68 251.611 C 1167.08 248.087 1189.27 239.515 1196.13 237.74 z"/>
<path transform="translate(0,0)" fill="rgb(145,149,145)" d="M 1196.13 237.74 C 1213.12 230.512 1228.37 228.14 1246.77 228.949 C 1281.39 230.471 1324.05 224.43 1356.09 240.291 C 1354.37 270.528 1344.39 305.385 1331.05 332.741 C 1323.65 347.923 1284.91 394.157 1270.39 400.792 C 1270.79 395.362 1307.37 364.162 1311.25 355.284 C 1313.93 349.161 1315.52 343.846 1317.48 337.673 C 1319.88 342.085 1316.9 341.485 1318.82 345.182 C 1319.7 344.839 1321.93 343.893 1322.35 343.091 C 1338.88 311.72 1351.71 276.838 1350.96 241.178 C 1328.37 230.286 1218.9 227.537 1198.29 240.381 L 1196.13 237.74 z"/>
<path transform="translate(0,0)" fill="rgb(184,186,182)" d="M 1207.76 326.232 C 1210.58 327.748 1210.11 327.069 1212.03 329.314 C 1204.42 334.902 1149.05 373.789 1141.53 376.363 L 1139.13 375.486 C 1153.29 366.675 1165.93 356.378 1179.59 346.763 C 1186.46 341.933 1197.63 338.953 1200.77 332.969 L 1200.19 331.751 C 1174.66 338.117 1057.66 396.999 1049.2 395.4 L 1045.38 391.279 L 1046.42 389.811 L 1048.9 390.33 C 1056.81 393.609 1067.13 385.328 1075.07 381.742 L 1142.57 350.954 C 1154.54 345.47 1166.73 340.471 1179.11 335.969 C 1188.12 332.769 1199.36 329.563 1207.76 326.232 z"/>
<path transform="translate(0,0)" fill="rgb(117,118,115)" d="M 1078.8 414.102 L 1077.82 415.551 C 1073.82 421.417 1070.51 422.155 1070.94 429.436 C 1078.96 445.513 1158.57 439.203 1175.63 438.221 C 1184.89 437.689 1204.59 429.76 1214.54 430.558 C 1193.3 441.727 1162.35 443.797 1138.81 443.195 C 1112.71 442.526 1087.41 446.579 1064.48 431.132 C 1064.35 427.9 1063.68 424.365 1063.17 421.145 C 1069.42 417.822 1072.13 416.478 1078.8 414.102 z"/>
<path transform="translate(0,0)" fill="url(#Gradient1)" d="M 1089.76 306.985 C 1089.94 307.887 1090.11 308.789 1090.29 309.692 C 1086.1 317.908 1064.58 358.418 1057.52 361.023 C 1055.76 360.578 1054.54 360.793 1052.64 360.824 C 1065.75 338.174 1074.8 327.675 1089.76 306.985 z"/>
<path transform="translate(0,0)" fill="rgb(47,67,61)" d="M 1161.68 251.611 C 1167.08 248.087 1189.27 239.515 1196.13 237.74 L 1198.29 240.381 C 1189.61 248.964 1172.14 252.448 1161.3 255.319 L 1161.68 251.611 z"/>
<path transform="translate(0,0)" fill="rgb(47,67,61)" d="M 1207.76 326.232 C 1214.67 320.796 1235.72 312.763 1244.38 310.305 C 1237.62 317.237 1221.82 329.024 1212.03 329.314 C 1210.11 327.069 1210.58 327.748 1207.76 326.232 z"/>
<path transform="translate(0,0)" fill="rgb(123,133,129)" d="M 1116.84 279.153 C 1116.31 284.294 1097.22 303.091 1092.07 303.64 C 1096.01 297.038 1109.84 283.365 1116.84 279.153 z"/>
<path transform="translate(0,0)" fill="rgb(59,63,62)" d="M 1043.06 373.981 L 1046.88 373.581 C 1047.91 378.717 1047.15 380.043 1045.79 385.323 L 1046.67 386.334 C 1048.21 388.127 1049.02 388.511 1048.9 390.33 L 1046.42 389.811 L 1045.38 391.279 C 1037.93 385.96 1041.54 382.646 1042.81 375.445 L 1043.06 373.981 z"/>
<path transform="translate(0,0)" fill="rgb(145,149,145)" d="M 1052.64 360.824 C 1054.54 360.793 1055.76 360.578 1057.52 361.023 C 1052.66 365.792 1050.92 368.152 1046.88 373.581 L 1043.06 373.981 C 1045.14 368.61 1048.81 365.091 1052.64 360.824 z"/>
<path transform="translate(0,0)" fill="rgb(123,133,129)" d="M 1161.68 251.611 L 1161.3 255.319 C 1156.81 256.894 1149.72 260.473 1145.84 259.844 C 1151.29 256.01 1155.67 254.167 1161.68 251.611 z"/>
<path transform="translate(0,0)" fill="rgb(2,59,40)" d="M 690.837 242.604 C 700.359 225.313 798.608 228.215 817.948 230.28 C 827.125 231.26 852.126 239.497 861.924 242.612 C 871.748 245.316 885.504 251.785 894.015 257.351 C 901.178 261.936 908.285 266.607 915.334 271.364 C 919.488 272.936 923.766 276.726 927.397 279.537 C 936.948 286.774 942.445 291.69 950.276 300.82 C 953.64 303.198 974.121 332.075 979.343 338.028 C 990.422 350.46 993.675 368.064 1004.24 378.485 C 1003.95 386.571 1004.92 395.704 994.334 396.764 L 988.986 396.604 C 981.081 392.795 971.31 385.968 963.379 382.413 C 951.589 377.128 936.728 370.583 925.113 365.82 C 909.778 359.533 865.468 337.183 853.052 335.593 C 851.432 337.262 851.741 339.512 851.364 342.434 C 852.817 342.554 855.756 342.662 856.977 343.104 C 862.811 345.027 907.538 374.277 913.339 379.56 C 924.664 385.309 938.689 396.615 950.251 403.825 C 959.281 409.456 972.113 415.381 979.95 420.623 C 980.166 424.328 982.023 433.729 978.812 435.363 C 950 446.634 905.969 443.499 874.826 442.138 C 866.402 441.77 837.195 432.52 827.885 429.932 C 823.444 428.409 805.84 418.516 800.96 415.716 C 795.245 413.606 774.663 400.412 769.568 396.67 C 756.958 389.901 749.685 377.263 740.899 366.569 C 735.986 360.244 727.692 354.279 723.349 347.655 C 704.205 318.459 693.509 285.959 688.791 251.478 C 688.214 247.259 688.506 245.725 690.837 242.604 z"/>
<path transform="translate(0,0)" fill="rgb(117,118,115)" d="M 690.837 242.604 C 700.359 225.313 798.608 228.215 817.948 230.28 C 827.125 231.26 852.126 239.497 861.924 242.612 C 857.302 246.589 854.507 243.13 848.803 243.545 C 818.43 227.549 734.102 230.183 700.557 240.367 C 697.215 241.382 695.38 242.279 692.808 244.674 L 690.837 242.604 z"/>
<path transform="translate(0,0)" fill="rgb(184,186,182)" d="M 834.093 325.158 C 843.114 330.632 857.363 331.921 864.834 335.631 C 880.955 343.636 987.176 386.222 989.428 395.381 L 988.986 396.604 C 981.081 392.795 971.31 385.968 963.379 382.413 C 951.589 377.128 936.728 370.583 925.113 365.82 C 909.778 359.533 865.468 337.183 853.052 335.593 C 851.432 337.262 851.741 339.512 851.364 342.434 C 845.763 341.767 837.716 332.997 831.751 328.954 L 834.093 325.158 z"/>
<path transform="translate(0,0)" fill="rgb(184,186,182)" d="M 690.837 242.604 L 692.808 244.674 C 692.398 293.937 719.771 342.648 751.916 377.236 C 755.623 381.224 765.663 390.642 769.992 393.861 L 769.568 396.67 C 756.958 389.901 749.685 377.263 740.899 366.569 C 735.986 360.244 727.692 354.279 723.349 347.655 C 704.205 318.459 693.509 285.959 688.791 251.478 C 688.214 247.259 688.506 245.725 690.837 242.604 z"/>
<path transform="translate(0,0)" fill="rgb(99,113,106)" d="M 827.885 429.932 L 829.597 428.553 C 842.307 431.756 863.99 438.144 876.606 438.932 C 901.671 440.499 928.843 439.723 953.884 438.399 C 959.685 438.092 974.251 433.308 978.812 435.363 C 950 446.634 905.969 443.499 874.826 442.138 C 866.402 441.77 837.195 432.52 827.885 429.932 z"/>
<path transform="translate(0,0)" fill="rgb(59,63,62)" d="M 979.343 338.028 C 990.422 350.46 993.675 368.064 1004.24 378.485 C 1003.95 386.571 1004.92 395.704 994.334 396.764 C 994.133 391.57 1000.92 381.861 994.682 376.09 C 988.655 368.506 983.201 359.188 979.555 350.179 C 977.192 344.342 977.153 343.462 979.343 338.028 z"/>
<path transform="translate(0,0)" fill="rgb(47,67,61)" d="M 950.276 300.82 C 953.64 303.198 974.121 332.075 979.343 338.028 C 977.153 343.462 977.192 344.342 979.555 350.179 C 983.201 359.188 988.655 368.506 994.682 376.09 C 993.896 375.977 991.531 375.398 991.234 374.94 C 979.103 356.25 961.933 318.171 947.685 302.365 L 950.276 300.82 z"/>
<path transform="translate(0,0)" fill="rgb(59,63,62)" d="M 861.924 242.612 C 871.748 245.316 885.504 251.785 894.015 257.351 L 889.881 259.421 C 890.916 261.565 892.099 262.829 893.585 264.661 C 890.116 263.807 852.879 245.901 848.803 243.545 C 854.507 243.13 857.302 246.589 861.924 242.612 z"/>
<path transform="translate(0,0)" fill="rgb(117,118,115)" d="M 913.339 379.56 C 912.385 379.624 910.265 379.834 909.513 379.272 C 899.658 371.906 859.23 353.558 855.171 344.6 L 856.977 343.104 C 862.811 345.027 907.538 374.277 913.339 379.56 z"/>
<path transform="translate(0,0)" fill="rgb(47,67,61)" d="M 831.751 328.954 C 828.301 328.262 802.824 316.357 800.223 314.438 L 801.996 312.553 C 810.65 312.049 826.54 320.738 834.093 325.158 L 831.751 328.954 z"/>
<path transform="translate(0,0)" fill="rgb(77,87,82)" d="M 894.015 257.351 C 901.178 261.936 908.285 266.607 915.334 271.364 L 914.838 272.313 C 910.425 272.696 899.836 264.474 893.585 264.661 C 892.099 262.829 890.916 261.565 889.881 259.421 L 894.015 257.351 z"/>
<path transform="translate(0,0)" fill="rgb(145,149,145)" d="M 927.397 279.537 C 936.948 286.774 942.445 291.69 950.276 300.82 L 947.685 302.365 C 943.071 297.393 927.896 285.108 927.397 279.537 z"/>
<path transform="translate(0,0)" fill="rgb(77,87,82)" d="M 769.992 393.861 C 776.106 398.263 798.354 411.668 800.96 415.716 C 795.245 413.606 774.663 400.412 769.568 396.67 L 769.992 393.861 z"/>
<path transform="translate(0,0)" fill="rgb(2,59,40)" d="M 1016.95 20.5329 C 1021.01 19.1687 1028.18 20.6662 1033.51 20.5154 C 1042.51 29.5225 1049.18 35.2728 1059.18 43.1307 C 1070.47 50.3147 1080.54 65.5752 1088.35 76.5767 C 1092.21 81.0362 1094.32 84.2972 1096.69 89.7755 C 1105.61 103.467 1115.46 133.475 1117.48 149.873 C 1120.56 166.474 1120.2 218.837 1114.07 232.163 C 1107.32 251.676 1102.37 267.614 1089.79 284.221 C 1081.91 299.006 1069.41 315.972 1057.79 328.054 C 1052.71 333.33 1042.56 334.861 1041.62 324.427 C 1039.89 305.375 1029.1 183.879 1022.11 176.508 L 1020.11 176.683 C 1018.73 182.111 1019.14 187.03 1018.05 191.996 C 1008.63 235.052 1007.51 279.362 1007.46 323.179 C 1003.11 326.976 998.601 332.9 992.253 331.85 C 992.256 331.851 989.564 331.213 989.397 330.952 C 981.865 319.213 964.886 301.881 958.966 290.145 C 954.61 287.602 950.191 271.089 947.657 267.521 C 937.375 253.036 936.137 242.5 931.738 226.046 C 921.497 187.735 924.489 147.42 939.65 110.683 C 945.018 96.249 952.305 82.5551 962.326 70.8569 C 968.993 59.6051 996.006 33.3314 1007.39 24.493 C 1009.06 23.1956 1014.64 21.2943 1016.95 20.5329 z"/>
<path transform="translate(0,0)" fill="rgb(123,133,129)" d="M 1015.74 172.531 L 1017.25 171.743 C 1021.93 172.462 1022.54 172.527 1027.07 171.197 C 1029.73 198.801 1034.27 225.304 1037.17 252.788 L 1042.72 304.681 C 1043.47 311.399 1042.43 322.009 1046.9 326.885 C 1059.14 330.115 1078.08 292.523 1087.65 283.733 L 1089.79 284.221 C 1081.91 299.006 1069.41 315.972 1057.79 328.054 C 1052.71 333.33 1042.56 334.861 1041.62 324.427 C 1039.89 305.375 1029.1 183.879 1022.11 176.508 L 1020.11 176.683 C 1018.73 182.111 1019.14 187.03 1018.05 191.996 C 1008.63 235.052 1007.51 279.362 1007.46 323.179 C 1003.11 326.976 998.601 332.9 992.253 331.85 C 992.256 331.851 989.564 331.213 989.397 330.952 C 981.865 319.213 964.886 301.881 958.966 290.145 C 970.661 291.464 980.267 325.272 997.49 327.093 C 998.903 327.243 1000.4 326.975 1001.35 325.885 C 1005.46 321.176 1003.68 302.105 1003.78 295.546 C 1004.17 269.186 1007.05 242.763 1010.48 216.627 C 1012.42 201.885 1015.25 187.439 1015.74 172.531 z"/>
<path transform="translate(0,0)" fill="rgb(47,67,61)" d="M 1022.73 131.704 C 1025.08 146.07 1027.04 156.505 1027.07 171.197 C 1022.54 172.527 1021.93 172.462 1017.25 171.743 L 1015.74 172.531 C 1018.76 159.455 1017.91 148.784 1022.73 131.704 z"/>
<path transform="translate(0,0)" fill="rgb(184,186,182)" d="M 1016.95 20.5329 L 1017.29 22.5146 C 1001.84 31.0275 976.416 58.5668 965.002 72.4762 L 962.326 70.8569 C 968.993 59.6051 996.006 33.3314 1007.39 24.493 C 1009.06 23.1956 1014.64 21.2943 1016.95 20.5329 z"/>
<path transform="translate(0,0)" fill="rgb(47,67,61)" d="M 1117.48 149.873 C 1120.56 166.474 1120.2 218.837 1114.07 232.163 C 1112.51 229.209 1112.55 229.135 1113.38 225.418 C 1118.17 204.055 1113.96 170.115 1117.48 149.873 z"/>
<path transform="translate(0,0)" fill="rgb(184,186,182)" d="M 1059.18 43.1307 C 1070.47 50.3147 1080.54 65.5752 1088.35 76.5767 L 1086.14 77.8205 C 1079.48 71.1671 1059.6 51.6185 1059.18 43.1307 z"/>
<path transform="translate(0,0)" fill="rgb(77,87,82)" d="M 939.65 110.683 C 945.018 96.249 952.305 82.5551 962.326 70.8569 L 965.002 72.4762 C 958.282 81.1358 956.649 85.9178 951.889 95.5812 C 950.632 98.1316 941.847 109.852 939.65 110.683 z"/>
<path transform="translate(0,0)" fill="rgb(77,87,82)" d="M 1088.35 76.5767 C 1092.21 81.0362 1094.32 84.2972 1096.69 89.7755 C 1090.85 86.0797 1088.93 84.0935 1086.14 77.8205 L 1088.35 76.5767 z"/>
</svg>